<svg id="图层_1" data-name="图层 1" xmlns="http://www.w3.org/2000/svg" viewBox="0 0 920 173.5"><defs><style>.cls-1{fill:none;stroke:#040000;stroke-miterlimit:10;}</style></defs><title>画板 2</title><path class="cls-1" d="M42.6,40.13q-1.37,9.34-3.39,19.44t-4.33,19.3q-2.31,9.21-4.61,16.93A120.89,120.89,0,0,1,26.07,108a111.43,111.43,0,0,1-4.81,10.5,13.93,13.93,0,0,1-4.8,5.48,32.93,32.93,0,0,1-3.93,2,.84.84,0,0,0-.68,1,2.69,2.69,0,0,0,.2,1c.14.31.3.47.48.47a3.29,3.29,0,0,0,.74-.13A10.69,10.69,0,0,1,15,128c.81-.1,1.91-.19,3.31-.28s3.23-.13,5.49-.13c1.62,0,3.34,0,5.15.13s3.52.21,5.14.34l4.13.34c1.13.09,1.83.14,2.1.14a8.44,8.44,0,0,0,5.08-1.43c1.31-.94,2.37-1.73,3.19-2.37a12.43,12.43,0,0,0,1.55-1.28c.41-.41.61-.7.61-.88q0-.54-1.08-.54a6.8,6.8,0,0,0-1.56.2,28.13,28.13,0,0,1-4.4.2A7.86,7.86,0,0,1,37.79,120q-2.37-2.43-2.37-8a38.54,38.54,0,0,1,.54-6.16c.36-2.21.79-4.45,1.29-6.7s1-4.5,1.55-6.71,1-4.31,1.49-6.3A22.19,22.19,0,0,1,47,84.69q4.26-.41,9-.4c2.7,0,5.3.09,7.78.27s4.54.4,6.17.67q1.08,5.56,2.23,12t2.17,12.12q1,5.7,1.69,9.76a48.69,48.69,0,0,1,.68,4.87c0,.63-.68,1-2,1s-2.44.11-3.25.2a.75.75,0,0,0-.75.47,3.09,3.09,0,0,0-.2,1.16,2.73,2.73,0,0,0,.27,1.22c.18.35.41.54.68.54s1-.05,2-.14,2.12-.18,3.38-.27l4-.27c1.4-.09,2.69-.14,3.86-.14q5.28,0,8.74.14c2.3.09,4.17.16,5.62.2s2.57.12,3.38.21,1.45.13,1.9.13a.84.84,0,0,0,1-1A7.59,7.59,0,0,0,105,126c-.18-.72-.46-1.08-.82-1.08s-1.1,0-2,.14a29.84,29.84,0,0,1-3.05.13,13,13,0,0,1-1.69-.07,4.45,4.45,0,0,1-1.15-.34,51.4,51.4,0,0,1-2.91-9.14q-1.69-6.7-3.66-15.57t-3.93-18.9q-2-10-3.52-19.1T79.78,45.82a83.83,83.83,0,0,1-1-10.29c0-.91.22-1.4.68-1.49,2.89-.18,5.5-.32,7.85-.41a59.69,59.69,0,0,0,6-.48,11.1,11.1,0,0,0,3.8-1.08,2.39,2.39,0,0,0,1.35-2.23,1.69,1.69,0,0,0-.54-1.22q-.54-.54-.81-.54a11.69,11.69,0,0,1-3.73.81q-3.18.41-7.92.81c-3.16.27-6.6.5-10.3.68s-7.31.27-10.83.27q-2.17,0-6.84-.14t-10.5-.67q-5.82-.54-12.19-1.43A89.79,89.79,0,0,1,23,26a2.13,2.13,0,0,0-1.09,1.9,5.83,5.83,0,0,0,.48,2.24,2.66,2.66,0,0,0,1,1.42c1.81.36,4.18.67,7.11.95s5.94.49,9,.67,6,.32,8.74.41,4.85.13,6.3.13ZM61.49,76.9c-2.48.41-5,.84-7.45,1.29l-7,1.29c-2.22.4-4,.79-5.49,1.15.54-2.71,1.24-5.73,2.1-9.08s1.81-6.7,2.85-10.09,2.1-6.68,3.18-9.88A90.81,90.81,0,0,1,53,43a44,44,0,0,1,3.18-6c1-1.49,1.94-2.23,2.85-2.23.45,0,.88.32,1.28.95a17.52,17.52,0,0,1,1.42,4.6q.54,2.45,1.43,7T65,57.26q.94,5.22,1.82,10.23t1.56,8.4Q65.21,76.29,61.49,76.9Z"/><path class="cls-1" d="M123.32,34.44a21.29,21.29,0,0,1,.81,3.25,57.49,57.49,0,0,1,.68,6.77c.18,3.08.34,7.18.48,12.33s.2,11.7.2,19.64q0,8.8-.27,16.66t-.68,14q-.41,6.17-1,10.22a21.8,21.8,0,0,1-1.15,5.15,5.22,5.22,0,0,1-2.37,1.15,47.35,47.35,0,0,1-4.6,1.15,50.72,50.72,0,0,1-5.28.82,24.12,24.12,0,0,1-4.27.13c-1-.09-1.63.23-1.9,1a5.8,5.8,0,0,0-.4,2c0,1.09.63,1.63,1.89,1.63a33.34,33.34,0,0,0,5.56-.61q3.38-.61,8.66-1.29t12.94-1.29q7.65-.6,18.62-.6,4.74,0,8.54.13t6.84.34c2,.13,3.9.34,5.62.61l5,.81a6.38,6.38,0,0,1,1.9.95,11.58,11.58,0,0,0,1.49,1,1.83,1.83,0,0,0-1.09,1.76c0,.72.23,1.13.68,1.22a5.56,5.56,0,0,0,.95.13,1.36,1.36,0,0,0,1.42-.88,4.37,4.37,0,0,0,.34-1.42,4,4,0,0,0-1.29-3,16.51,16.51,0,0,0-2.37-1.9,17.88,17.88,0,0,1,.81-2.91c.45-1.31,1-2.68,1.63-4.13a33.67,33.67,0,0,1,2.1-4.06,10.38,10.38,0,0,1,2.37-2.85,1.1,1.1,0,0,0,.41-1.15,3.25,3.25,0,0,0-.61-1.35,1.91,1.91,0,0,0-1.16-.75,1.28,1.28,0,0,0-1.21.41c-.1.09-.16.11-.21.07s-.11,0-.2.2a18.82,18.82,0,0,1-5.22,3.39,40.75,40.75,0,0,1-6.56,2.23c-2.35.59-4.72,1.08-7.12,1.49s-4.62.75-6.7,1c-.81.09-1.78.22-2.91.4s-2.28.34-3.46.48l-3.45.4a24.18,24.18,0,0,1-2.91.21,5.37,5.37,0,0,1-1.49-.14c-.64-.63-1.06-3.52-1.29-8.67s-.34-11.87-.34-20.18q0-7.72.21-16.93t.54-17.4q.33-8.2.95-14.23c.4-4,.88-6.47,1.42-7.38a13.12,13.12,0,0,1,4.2-1.22c2.07-.36,4.2-.74,6.36-1.15a47.6,47.6,0,0,0,5.76-1.42c1.67-.54,2.5-1.22,2.5-2q0-2.85-1.35-2.85a.28.28,0,0,0-.2.07.28.28,0,0,1-.21.07h-.13A21,21,0,0,1,158,27.13q-2.72.68-6.78,1.35T142,29.7q-5.14.54-11.1.68h-8.13q-5.15-.27-8.19-.61c-2-.23-3.55-.38-4.54-.48-.81.1-1.31.39-1.49.89a4.91,4.91,0,0,0-.27,1.69,1.63,1.63,0,0,0,.88,1.28c.58.41,2,.66,4.4.75Z"/><path class="cls-1" d="M210.82,126.82q6.36,0,10.7.13t7.18.34l4.47.34c1.08.09,1.89.13,2.43.13a4.38,4.38,0,0,0,2.1-.54,1.85,1.85,0,0,0,1-1.76c0-.72-.14-1.17-.41-1.35a4.08,4.08,0,0,0-1.89-.27c-1.18,0-2.46,0-3.86-.14s-2.78-.25-4.13-.47-2.53-.45-3.53-.68a5.52,5.52,0,0,1-2-.75q-.81-.67-1.22-5.28t-.61-10.9q-.19-6.3-.13-13.14t.2-12q.13-6.76.54-14.76t.88-14.9q.48-6.9,1.09-11.58c.4-3.12.83-4.76,1.28-4.94l1.63-.41a17.13,17.13,0,0,1,2.37-.41l2.64-.27c.9-.09,1.72-.13,2.44-.13,2.08-.18,3.11-1,3.11-2.58,0-.72-.29-1.15-.88-1.28a7.75,7.75,0,0,0-1.82-.21c-1.27.19-3.59.39-7,.61s-7.47.34-12.26.34q-11,0-16.86-.47c-3.93-.32-6.25-.48-7-.48a2.52,2.52,0,0,0-1.49.48,2.1,2.1,0,0,0-.67,1.83c0,.81.22,1.28.67,1.42a12.12,12.12,0,0,0,1.63.34,27.6,27.6,0,0,0,3.93,0,26.51,26.51,0,0,1,4.74.13,5.37,5.37,0,0,1,3.93,1.7q1.08,1.41,1.21,5.75c0,.54,0,1.42.07,2.64s.09,3,.14,5.22.09,5.12.13,8.6.07,7.79.07,12.93q0,7.05-.41,15.31t-1.08,15.78q-.68,7.51-1.56,13.14a30.31,30.31,0,0,1-1.69,7.24c-.45.73-1.81,1.31-4.06,1.76a47.62,47.62,0,0,1-9.08.68,1.88,1.88,0,0,0-1.49.61,1.8,1.8,0,0,0-.54,1.15,2.66,2.66,0,0,0,.47,1.42,1.37,1.37,0,0,0,1.16.75l2.16-.27c.9-.09,2.19-.2,3.86-.34s3.46-.23,5.35-.27l5.83-.14c2,0,3.79-.06,5.42-.06Z"/><path class="cls-1" d="M317.21,118.55c0,2.44-.11,5-.2,7.59s-.18,5.08-.27,7.38-.19,3.91-.27,4.81a9.33,9.33,0,0,1-3.12,6.3,10.12,10.12,0,0,1-6.91,2.37,66.27,66.27,0,0,1-11.78-1.22Q288,144.57,281.32,143t-12.94-2.84a76.83,76.83,0,0,0-10.7-1.56,13.31,13.31,0,0,0-2.57,1.42,51.71,51.71,0,0,0-4.88,3.46,47.92,47.92,0,0,0-4.67,4.19c-1.4,1.45-2.1,2.62-2.1,3.53a1.86,1.86,0,0,0,.74,1.22c.5.45.84.31,1-.41s.81-1.38,2.17-1.69a18.78,18.78,0,0,1,4.33-.48,46.45,46.45,0,0,1,8.6,1l11.38,2.23q6.17,1.23,12.73,2.17a89,89,0,0,0,12.67,1,18.21,18.21,0,0,0,6.57-1.56,56.31,56.31,0,0,0,8-4.06,76.33,76.33,0,0,0,15.3-12.4,40.2,40.2,0,0,0,5.15-6.63,11.57,11.57,0,0,0,2-5.83c0-1.89,0-3.77-.13-5.62s-.16-4.24-.21-7.18-.11-6.7-.2-11.31S333.4,91,333.4,83.47q.14-8,.2-15.91T334,53c.22-4.43.49-8.26.81-11.52a21.4,21.4,0,0,1,1.42-6.77,2.08,2.08,0,0,1,1.22-.88c.63-.22,1.31-.43,2-.61s1.38-.34,2-.47.92-.34,1-.61a4.21,4.21,0,0,0-.07-2.24c-.22-.94-.88-1.33-2-1.15a52,52,0,0,1-6.1.61c-2.52.14-6.14.25-10.83.34h-5.08c-1.49,0-2.91,0-4.27-.07L310,29.5c-1.44-.05-3.11-.07-5-.07a1.44,1.44,0,0,0-1.28.75,2.9,2.9,0,0,0-.48,1.62,2.51,2.51,0,0,0,.61,1.63,2.13,2.13,0,0,0,2,.61l2.37-.34a27,27,0,0,1,2.77-.27c.9,0,1.74-.07,2.51-.07a2.27,2.27,0,0,1,1.56.4A6.14,6.14,0,0,1,316.6,37a46.18,46.18,0,0,1,.81,7.31q.27,6.22.14,17.4t-.14,29.73a37.23,37.23,0,0,1-1.28,8.88A33.71,33.71,0,0,1,312,110a26.06,26.06,0,0,1-7.52,7.72,20.06,20.06,0,0,1-11.58,3.19,31.77,31.77,0,0,1-11-2,26.78,26.78,0,0,1-9.62-6.16,30.34,30.34,0,0,1-6.84-10.9,45.84,45.84,0,0,1-2.57-16.33,124.47,124.47,0,0,1,1.49-19.84A118.82,118.82,0,0,1,268,49.21a80.54,80.54,0,0,1,4.61-11.92q2.37-4.74,4.27-6v-1a1.6,1.6,0,0,0-.14-.88q-3.79.41-7.59.47c-2.52.05-5.78.07-9.75.07H254.3c-1.36,0-2.51.05-3.46.14a13.47,13.47,0,0,0-2.37.4,6.58,6.58,0,0,0-1.76.82,6,6,0,0,0-2.91,3.45q-.75,2.23-1.42,4.67c-.55,2.08-.37,3.25.54,3.52a1.74,1.74,0,0,0,2.17-1.08c1-1.71,3.22-3.07,6.7-4.06s8.42-1.27,14.83-.81c-.27.27-1,1.15-2.17,2.64s-2.57,3.5-4.19,6-3.35,5.49-5.15,8.88a96.13,96.13,0,0,0-5,11.1,94.7,94.7,0,0,0-3.86,12.8,61.39,61.39,0,0,0-1.56,13.82,38.66,38.66,0,0,0,3,15.71,30.41,30.41,0,0,0,8.4,11.31,36.42,36.42,0,0,0,13,6.84,58.36,58.36,0,0,0,16.93,2.3,31,31,0,0,0,10-1.62,50.67,50.67,0,0,0,8.93-4,51.45,51.45,0,0,0,7.32-5,45.11,45.11,0,0,0,5.08-4.81C317.28,114.27,317.25,116.12,317.21,118.55Z"/><path class="cls-1" d="M367.26,40.13q-1.36,9.34-3.39,19.44t-4.33,19.3q-2.31,9.21-4.61,16.93a120.89,120.89,0,0,1-4.2,12.19,111.43,111.43,0,0,1-4.81,10.5,13.93,13.93,0,0,1-4.8,5.48,32.93,32.93,0,0,1-3.93,2,.84.84,0,0,0-.68,1,2.69,2.69,0,0,0,.2,1c.14.31.3.47.48.47a3.29,3.29,0,0,0,.74-.13,10.69,10.69,0,0,1,1.7-.27c.81-.1,1.92-.19,3.31-.28s3.23-.13,5.49-.13c1.63,0,3.34,0,5.15.13s3.52.21,5.14.34l4.13.34c1.13.09,1.83.14,2.1.14a8.44,8.44,0,0,0,5.08-1.43c1.31-.94,2.37-1.73,3.19-2.37a12.43,12.43,0,0,0,1.55-1.28c.41-.41.61-.7.61-.88q0-.54-1.08-.54a6.8,6.8,0,0,0-1.56.2,28.13,28.13,0,0,1-4.4.2,7.86,7.86,0,0,1-5.89-2.44q-2.37-2.43-2.37-8a38.54,38.54,0,0,1,.54-6.16c.36-2.21.79-4.45,1.29-6.7s1-4.5,1.55-6.71,1-4.31,1.49-6.3a22.19,22.19,0,0,1,6.71-1.49q4.26-.41,9-.4c2.7,0,5.3.09,7.78.27s4.54.4,6.17.67q1.08,5.56,2.23,12T399,109.34q1,5.7,1.69,9.76a48.69,48.69,0,0,1,.68,4.87c0,.63-.68,1-2,1s-2.44.11-3.25.2a.75.75,0,0,0-.75.47,3.09,3.09,0,0,0-.2,1.16,2.73,2.73,0,0,0,.27,1.22c.18.35.41.54.68.54s1-.05,2-.14,2.12-.18,3.38-.27l4-.27c1.4-.09,2.69-.14,3.86-.14q5.28,0,8.74.14c2.3.09,4.17.16,5.62.2s2.57.12,3.38.21,1.45.13,1.9.13a.84.84,0,0,0,1-1,7.59,7.59,0,0,0-.27-1.49c-.18-.72-.46-1.08-.82-1.08s-1.1,0-2,.14a29.84,29.84,0,0,1-3.05.13,13,13,0,0,1-1.69-.07,4.45,4.45,0,0,1-1.15-.34,51.4,51.4,0,0,1-2.91-9.14q-1.69-6.7-3.66-15.57t-3.93-18.9q-2-10-3.52-19.1t-2.57-16.25a83.83,83.83,0,0,1-1-10.29c0-.91.23-1.4.68-1.49,2.89-.18,5.5-.32,7.85-.41a59.69,59.69,0,0,0,6-.48,11.1,11.1,0,0,0,3.8-1.08,2.39,2.39,0,0,0,1.35-2.23,1.69,1.69,0,0,0-.54-1.22q-.54-.54-.81-.54a11.69,11.69,0,0,1-3.73.81q-3.18.41-7.92.81t-10.3.68q-5.55.27-10.83.27-2.18,0-6.84-.14t-10.5-.67q-5.82-.54-12.19-1.43A89.79,89.79,0,0,1,347.62,26a2.13,2.13,0,0,0-1.09,1.9,5.83,5.83,0,0,0,.48,2.24,2.66,2.66,0,0,0,1,1.42c1.81.36,4.18.67,7.11.95s5.94.49,9,.67,6,.32,8.74.41,4.85.13,6.3.13ZM386.15,76.9c-2.48.41-5,.84-7.45,1.29l-7,1.29c-2.21.4-4,.79-5.49,1.15.54-2.71,1.24-5.73,2.1-9.08s1.81-6.7,2.85-10.09,2.1-6.68,3.18-9.88A90.81,90.81,0,0,1,377.62,43a44,44,0,0,1,3.18-6c1-1.49,1.94-2.23,2.85-2.23.45,0,.88.32,1.28.95a17.52,17.52,0,0,1,1.42,4.6q.54,2.45,1.43,7t1.83,9.82q.94,5.22,1.82,10.23t1.56,8.4Q389.87,76.29,386.15,76.9Z"/><path class="cls-1" d="M524.92,18.8a43.57,43.57,0,0,0-2.78,4.81c-.86,1.71-1.63,3.41-2.3,5.08s-1.2,2.95-1.56,3.86c-2.62-.82-6-1.85-10.3-3.12a57.6,57.6,0,0,0-16.11-1.9,63.53,63.53,0,0,0-23.44,4.27,58.77,58.77,0,0,0-18.82,11.72A55.44,55.44,0,0,0,437,60.85,49.47,49.47,0,0,0,432.41,82a52,52,0,0,0,3.38,19.1,41.64,41.64,0,0,0,10,15,45.48,45.48,0,0,0,16.6,9.88,68.62,68.62,0,0,0,23,3.53A44.89,44.89,0,0,0,502,126.34a53.56,53.56,0,0,0,14.29-8.26,43.15,43.15,0,0,0,10-11.51,25.24,25.24,0,0,0,3.79-12.94,16.62,16.62,0,0,0-2-8,19.66,19.66,0,0,0-6-6.64,30.82,30.82,0,0,0-9.62-4.47,47.5,47.5,0,0,0-13-1.62,57.52,57.52,0,0,0-12.73,1.35,51.82,51.82,0,0,0-10.43,3.46,23.88,23.88,0,0,0-7,4.74q-2.58,2.64-2.58,5.21a10.49,10.49,0,0,0,2.78,7.18A9.71,9.71,0,0,0,477.1,98a33.4,33.4,0,0,0,9.35-1.16c2.62-.76,4.15-1.42,4.6-2q.27-.27-.06-1a.88.88,0,0,0-1-.6,1.7,1.7,0,0,1-1.35-.48A8.87,8.87,0,0,1,487,91.13a9,9,0,0,1-1.35-2.44,8.34,8.34,0,0,1-.55-3A6.73,6.73,0,0,1,486,82a7.92,7.92,0,0,1,2.58-2.5A12,12,0,0,1,492.27,78a17.68,17.68,0,0,1,4.07-.48,10.28,10.28,0,0,1,6.23,2.1,21,21,0,0,1,5,5.42A28.13,28.13,0,0,1,511,92.48a28.63,28.63,0,0,1,1.22,8.19,26.47,26.47,0,0,1-1.62,9.35,22.38,22.38,0,0,1-4.61,7.52,21.06,21.06,0,0,1-7.31,5,24.85,24.85,0,0,1-9.75,1.83,29.43,29.43,0,0,1-14.7-3.79,36.33,36.33,0,0,1-11.44-10.23,49.45,49.45,0,0,1-7.39-15A62.19,62.19,0,0,1,452.72,77,60.8,60.8,0,0,1,455,60.38a45.13,45.13,0,0,1,6.43-13.88A32.56,32.56,0,0,1,471.75,37a27.65,27.65,0,0,1,14.16-3.59A23.3,23.3,0,0,1,496.81,36a34.91,34.91,0,0,1,8.87,6.5,33.21,33.21,0,0,1,6,8.06A16.58,16.58,0,0,1,513.81,58c0,.63,0,1.22-.07,1.76s-.07,1-.07,1.35a.67.67,0,0,0,.68.75,3.7,3.7,0,0,0,1.42-.14,5.27,5.27,0,0,0,1.43-.61c.45-.27.67-.54.67-.81a84.61,84.61,0,0,1,3.25-23.77,40.34,40.34,0,0,1,10-17.13,5,5,0,0,0-.61-2.78,2.9,2.9,0,0,0-2.51-.88A8.58,8.58,0,0,0,524.92,18.8Z"/><path class="cls-1" d="M568.93,85.78c.18,0,.46,0,.82-.07a10.19,10.19,0,0,1,1.35-.07h3.12c1.35,0,2.82.07,4.4.2s3.23.37,4.94.68a19.33,19.33,0,0,1,4.61,1.42,41,41,0,0,1,8.73,6.44,119.79,119.79,0,0,1,8.47,8.8q4.07,4.68,7.65,9.14t6.3,7.45q3.66,4.07,7.79,7.86a62.83,62.83,0,0,0,8.67,6.7,46.41,46.41,0,0,0,9.48,4.68,30.72,30.72,0,0,0,10.36,1.76q10.7,0,13.41-6.1a13.33,13.33,0,0,0-.34-1.35.84.84,0,0,0-.88-.68,1.8,1.8,0,0,0-1.08.41,4.6,4.6,0,0,1-1.76,2.16,9.25,9.25,0,0,1-2.65,1.22,15.76,15.76,0,0,1-3,.54c-1,.09-2,.14-2.78.14a18.66,18.66,0,0,1-11.31-3.72,46,46,0,0,1-9.21-9.08,92.33,92.33,0,0,1-7.45-11.24q-3.32-5.89-6-10.23c.63-.9,1.06-1.56,1.29-2a6.1,6.1,0,0,0,.34-2.51,14.86,14.86,0,0,0-3.46-6.77,23.06,23.06,0,0,0-6.63-5.08,37.64,37.64,0,0,0-8.94-3.25,46.1,46.1,0,0,0-10.5-1.15A66.37,66.37,0,0,0,604,77.31a49.27,49.27,0,0,0,9.21-7.25,40.75,40.75,0,0,0,7-9.27,22.68,22.68,0,0,0,2.78-11,20.75,20.75,0,0,0-2.71-10.7A24,24,0,0,0,613,31.33a33,33,0,0,0-10.63-4.68,52.16,52.16,0,0,0-12.87-1.55,40.86,40.86,0,0,0-8.6.94q-4.39,1-8.33,2.17c-2.62.81-4.92,1.63-6.91,2.44s-3.43,1.44-4.33,1.9a4.92,4.92,0,0,1-2.17.4,142.38,142.38,0,0,1-14.42-.61c-3.93-.4-6.71-.61-8.33-.61-1.45,0-2.17.59-2.17,1.76,0,1,.65,1.63,2,1.9a38.18,38.18,0,0,0,4.68.61c1.8.13,3.65.32,5.55.54a10.21,10.21,0,0,1,4.61,1.56,32.74,32.74,0,0,1,.74,4.2q.33,2.7.68,7.38T553,61.33q.13,7,.14,17,0,11-.21,17.94t-.61,11.65c-.27,3.12-.58,5.71-.94,7.79s-.82,4.11-1.36,6.09a39.14,39.14,0,0,1-3.79,1.16,34,34,0,0,1-4.88.74q-4.47.67-6.09.81a1.65,1.65,0,0,0-1.63,1.9,1.51,1.51,0,0,0,.68,1.29,2.8,2.8,0,0,0,1.63.47q1.08,0,6.7-.74a137.31,137.31,0,0,1,16.73-.75q8.67,0,15.44.47t10.7.34a4,4,0,0,0,2.17-.47,1.38,1.38,0,0,0,.67-1.15c0-.9-.61-1.49-1.83-1.76a27.72,27.72,0,0,0-4.53-.54q-2.72-.13-5.76-.48a13,13,0,0,1-5.48-1.83,44,44,0,0,1-1.49-10.63q-.29-6.57-.28-13.48Zm2.71-47.95A7.4,7.4,0,0,1,574,34.51,20.72,20.72,0,0,1,578,31.73a28.07,28.07,0,0,1,4.67-2A14.29,14.29,0,0,1,587,29a12.91,12.91,0,0,1,6.64,1.83A16.76,16.76,0,0,1,599,36.13a28.83,28.83,0,0,1,3.66,8.27A40.32,40.32,0,0,1,604,55.3a28.28,28.28,0,0,1-1.09,7.92,36.09,36.09,0,0,1-2.64,6.71A33.92,33.92,0,0,1,597,75.08a15.52,15.52,0,0,1-3,3.11,13.52,13.52,0,0,1-4.94,2.44,27,27,0,0,1-6.57.68q-4.47,0-8.33-.14c-2.57-.09-4.31-.49-5.22-1.22q0-5.28.14-11.17c.09-3.93.22-7.72.41-11.38s.4-7,.67-10.09a44.28,44.28,0,0,1,1.09-7.18Z"/><path class="cls-1" d="M663.21,40.13q-1.37,9.34-3.39,19.44t-4.34,19.3q-2.29,9.21-4.6,16.93a123.46,123.46,0,0,1-4.2,12.19,111.43,111.43,0,0,1-4.81,10.5,13.87,13.87,0,0,1-4.81,5.48,32.23,32.23,0,0,1-3.92,2,.84.84,0,0,0-.68,1,2.69,2.69,0,0,0,.2,1c.14.31.3.47.48.47a3.29,3.29,0,0,0,.74-.13,10.72,10.72,0,0,1,1.69-.27c.82-.1,1.92-.19,3.32-.28s3.23-.13,5.49-.13c1.62,0,3.34,0,5.15.13s3.52.21,5.14.34l4.13.34c1.13.09,1.83.14,2.1.14a8.44,8.44,0,0,0,5.08-1.43q2-1.41,3.18-2.37a11.89,11.89,0,0,0,1.56-1.28c.41-.41.61-.7.61-.88q0-.54-1.08-.54a6.8,6.8,0,0,0-1.56.2,28.13,28.13,0,0,1-4.4.2A7.86,7.86,0,0,1,658.4,120q-2.37-2.43-2.37-8a38.54,38.54,0,0,1,.54-6.16c.36-2.21.79-4.45,1.29-6.7s1-4.5,1.55-6.71,1-4.31,1.49-6.3a22.19,22.19,0,0,1,6.71-1.49q4.26-.41,9-.4,4.07,0,7.79.27c2.49.18,4.54.4,6.17.67q1.08,5.56,2.23,12T695,109.34c.67,3.8,1.24,7,1.69,9.76a48.69,48.69,0,0,1,.68,4.87c0,.63-.68,1-2,1s-2.44.11-3.25.2a.75.75,0,0,0-.75.47,2.9,2.9,0,0,0-.2,1.16,2.73,2.73,0,0,0,.27,1.22c.18.35.4.54.68.54s1-.05,2-.14,2.12-.18,3.38-.27l4-.27c1.4-.09,2.68-.14,3.86-.14q5.28,0,8.74.14c2.3.09,4.17.16,5.62.2s2.57.12,3.38.21,1.45.13,1.9.13a.84.84,0,0,0,.95-1,7.59,7.59,0,0,0-.27-1.49c-.19-.72-.46-1.08-.82-1.08s-1.1,0-2,.14a30,30,0,0,1-3,.13,12.86,12.86,0,0,1-1.69-.07,4.45,4.45,0,0,1-1.15-.34,50.56,50.56,0,0,1-2.91-9.14q-1.7-6.7-3.66-15.57t-3.93-18.9q-2-10-3.52-19.1t-2.57-16.25a83.83,83.83,0,0,1-1-10.29c0-.91.22-1.4.68-1.49,2.89-.18,5.5-.32,7.85-.41a59.69,59.69,0,0,0,6-.48,11,11,0,0,0,3.79-1.08A2.39,2.39,0,0,0,719,29.84a1.69,1.69,0,0,0-.54-1.22c-.36-.36-.64-.54-.82-.54a11.51,11.51,0,0,1-3.72.81q-3.18.41-7.92.81t-10.3.68q-5.55.27-10.83.27-2.18,0-6.84-.14t-10.5-.67q-5.82-.54-12.19-1.43A89.46,89.46,0,0,1,643.57,26a2.13,2.13,0,0,0-1.09,1.9,5.83,5.83,0,0,0,.48,2.24,2.66,2.66,0,0,0,1,1.42c1.81.36,4.18.67,7.11.95s5.94.49,9,.67,6,.32,8.74.41,4.85.13,6.29.13ZM682.1,76.9c-2.48.41-5,.84-7.45,1.29l-7,1.29c-2.22.4-4.05.79-5.49,1.15.54-2.71,1.24-5.73,2.1-9.08s1.81-6.7,2.85-10.09,2.09-6.68,3.18-9.88A90.81,90.81,0,0,1,673.57,43a42.9,42.9,0,0,1,3.18-6c1-1.49,1.94-2.23,2.84-2.23.45,0,.88.32,1.29.95a17.52,17.52,0,0,1,1.42,4.6q.54,2.45,1.43,7t1.82,9.82q.94,5.22,1.83,10.23t1.56,8.4Q685.82,76.29,682.1,76.9Z"/><path class="cls-1" d="M796.21,130.54q-.54,2.37-1.08,5.08a37.33,37.33,0,0,0-.68,4.81c-.09,1.4.36,2.1,1.36,2.1a3.41,3.41,0,0,0,2.3-.54c.36-.37.54-1.27.54-2.71a21.74,21.74,0,0,1,.41-4.13c.27-1.4.56-2.76.88-4.07a25.83,25.83,0,0,1,1.08-3.52c.41-1,.75-1.87,1-2.5s1-1.65,2-3.32,2-3.52,3-5.56,1.87-4.06,2.64-6.09a14.61,14.61,0,0,0,1.15-4.81c0-.36-.38-.45-1.15-.27a2,2,0,0,0-1.42.81,28,28,0,0,1-4.54,7.18,34.31,34.31,0,0,1-6.64,6A32.32,32.32,0,0,1,789,123a27.77,27.77,0,0,1-9,1.49,25.26,25.26,0,0,1-12.73-3.31,29.62,29.62,0,0,1-10-9.69A51.09,51.09,0,0,1,750.64,96a83.15,83.15,0,0,1-2.38-20.92,64.89,64.89,0,0,1,1.9-16,41.51,41.51,0,0,1,5.49-12.86,27.33,27.33,0,0,1,8.8-8.54,22.74,22.74,0,0,1,11.85-3.11,32.12,32.12,0,0,1,10.77,1.62,23.09,23.09,0,0,1,7.59,4.34,20.3,20.3,0,0,1,4.74,6.09,23.68,23.68,0,0,1,2.23,6.77,3.31,3.31,0,0,0,1.9.82,1.64,1.64,0,0,0,1.08-.48,1.47,1.47,0,0,0,.54-1.15c0-.81.05-1.8.14-3s.22-2.39.4-3.66.39-2.55.61-3.86.43-2.45.61-3.45a41.8,41.8,0,0,1,1.56-6.16,30.57,30.57,0,0,1,2.37-5.42,16.71,16.71,0,0,1,2.91-3.86,4.65,4.65,0,0,1,3.19-1.49,1.38,1.38,0,0,0,.88-.27,6.17,6.17,0,0,0,1-1.49c0-.72-.45-1.17-1.35-1.36a4.4,4.4,0,0,0-2.44.14,14.19,14.19,0,0,0-6,5.55,51.32,51.32,0,0,0-3.93,8.4,16.57,16.57,0,0,0-3.72-.88c-1.95-.31-4.16-.61-6.64-.88s-5-.5-7.45-.68-4.45-.27-5.89-.27a57.94,57.94,0,0,0-19.1,3.25,53.21,53.21,0,0,0-16.79,9.48A46.26,46.26,0,0,0,729,79.27q0,13,4.13,22.29A43.39,43.39,0,0,0,744,116.73a42.86,42.86,0,0,0,15.37,8.66,57.84,57.84,0,0,0,17.74,2.78c1.54,0,3.23,0,5.08-.13s3.66-.16,5.42-.21,3.41-.11,4.95-.2,2.75-.14,3.65-.14C796.57,127.94,796.57,129,796.21,130.54Z"/><path class="cls-1" d="M899.22,134.06a5.44,5.44,0,0,0,2.37-.47,28.68,28.68,0,0,1-1-5.69q-.27-3.39-.27-6.91a39,39,0,0,1,.68-7.72c.27-1.17.54-2.25.81-3.25a1.22,1.22,0,0,0-.74-1.08,2.84,2.84,0,0,0-1.29-.41c-.09,0-.27.14-.54.41a17.64,17.64,0,0,1-2.92,4.33,26,26,0,0,1-5.48,4.67,33.54,33.54,0,0,1-8.26,3.8,36.93,36.93,0,0,1-11.24,1.55,31.28,31.28,0,0,1-11.72-2,27.32,27.32,0,0,1-8.74-5.48,32.06,32.06,0,0,1-6.09-7.86,48.73,48.73,0,0,1-3.93-9.14,54.66,54.66,0,0,1-2.1-9.48,68.74,68.74,0,0,1-.61-8.81c1.53-.09,4.18-.18,7.92-.27s8.69-.13,14.84-.13q4.88,0,9.07.13a50.56,50.56,0,0,1,7.52.75A16.7,16.7,0,0,1,883,82.8a5.33,5.33,0,0,1,2.64,3.38,2.42,2.42,0,0,0,1.55,1.49q1.29.54,1.56-.81a38,38,0,0,1,.54-6.5,44.07,44.07,0,0,1,1.36-5.69c.54-1.71,1-3.23,1.49-4.54s.76-2.37.95-3.18a2,2,0,0,0-1.43-.68,1.49,1.49,0,0,0-1.55.68,10.42,10.42,0,0,1-3.66,2,43.92,43.92,0,0,1-6.1,1.69,68.72,68.72,0,0,1-7.72,1.15c-2.8.28-5.64.41-8.53.41-1.26.09-3.16.12-5.69.07s-5.14-.11-7.85-.2-5.22-.23-7.52-.41a34.9,34.9,0,0,1-4.54-.54,54.82,54.82,0,0,1,2.58-13.89,44,44,0,0,1,5.82-11.91,30.59,30.59,0,0,1,8.67-8.4,20.3,20.3,0,0,1,11.1-3.19,31.19,31.19,0,0,1,9.76,1.43,28.2,28.2,0,0,1,7.45,3.59,23.79,23.79,0,0,1,5,4.53,15.58,15.58,0,0,1,2.57,4.27c.36,1.27,1,1.92,2,2s1.51-.29,1.69-1q.54-4.06,1.28-7.32a38.56,38.56,0,0,1,1.43-5,54,54,0,0,1,3.72-10,19.1,19.1,0,0,1,5.22-6.57c1.26-.9,1.58-1.63.94-2.17A9.08,9.08,0,0,0,904.43,16c-1.26,0-2.35.84-3.25,2.51a37.57,37.57,0,0,0-2.37,5.41c-.67,1.95-1.24,3.73-1.69,5.35s-.9,2.4-1.35,2.31a36.29,36.29,0,0,0-3.66-.61c-1.72-.23-3.71-.45-6-.68s-4.65-.41-7.18-.54-4.88-.2-7-.2a70,70,0,0,0-20.73,3,48.53,48.53,0,0,0-17.47,9.55,46,46,0,0,0-12.05,16.59q-4.47,10.09-4.47,24a50,50,0,0,0,3.25,18.35,39.06,39.06,0,0,0,9.48,14.29,44,44,0,0,0,15.3,9.34,59.42,59.42,0,0,0,20.86,3.39q3,0,6.91-.2t7.86-.54c2.61-.23,5.08-.41,7.38-.55s4.13-.2,5.48-.2a3,3,0,0,1,3.19,2.1,21.13,21.13,0,0,1,1,4C898.11,133.59,898.54,134,899.22,134.06Z"/></svg>